<?xml version="1.0" encoding="utf-8"?>
<!-- Generator: Adobe Illustrator 16.0.0, SVG Export Plug-In . SVG Version: 6.00 Build 0)  -->
<!DOCTYPE svg PUBLIC "-//W3C//DTD SVG 1.1//EN" "http://www.w3.org/Graphics/SVG/1.1/DTD/svg11.dtd">
<svg version="1.1" xmlns="http://www.w3.org/2000/svg" xmlns:xlink="http://www.w3.org/1999/xlink" x="0px" y="0px" width="200px"
	 height="200px" viewBox="0 0 200 200" enable-background="new 0 0 200 200" xml:space="preserve">
<g id="Layer_09">
	<path d="M154.216,45.784c-14.121,14.121-28.242,28.242-42.363,42.363c-7.061,7.06-14.121,14.121-21.181,21.181
		c-0.322,0.321-0.643,0.643-0.964,0.964c-0.161,0.161-0.321,0.322-0.482,0.483c-0.08,0.08-0.16,0.16-0.241,0.24
		c-0.04,0.04-0.081,0.081-0.12,0.121c-0.025,0.025-0.098,0.038-0.053,0.083c0.192,0.191,0.384,0.38,0.579,0.569
		c0.394,0.379,0.792,0.753,1.197,1.119c0.829,0.747,1.679,1.464,2.557,2.153c1.823,1.431,3.724,2.715,5.731,3.872
		c4.286,2.47,8.691,4.188,13.52,5.264c20.197,4.495,40.979-4.669,50.683-23.137C172.733,82.684,168.726,60.293,154.216,45.784z"/>
</g>
<g id="Layer_07">
	<path fill="#d52852" d="M84.232,130.781c-16.827,16.828-33.654,33.654-50.48,50.481c-2.008,2.007-4.014,4.014-6.022,6.021
		c-0.501,0.501-1.003,1.004-1.504,1.505c-0.251,0.25-0.502,0.501-0.753,0.752c-0.063,0.063-0.125,0.125-0.188,0.188
		c-0.031,0.031-0.063,0.063-0.094,0.094c-0.014,0.015-0.019-0.009-0.028-0.016c-0.035-0.026-0.071-0.052-0.106-0.076
		c-0.285-0.205-0.568-0.411-0.849-0.619c-1.128-0.837-2.226-1.709-3.297-2.619c-2.154-1.829-4.167-3.778-6.063-5.874
		c-0.944-1.042-1.852-2.115-2.726-3.217c-0.435-0.55-0.861-1.106-1.279-1.67c-0.208-0.28-0.414-0.563-0.618-0.849
		c-0.012-0.018-0.025-0.036-0.038-0.053c-0.033-0.047,0.083-0.117,0.105-0.139c0.125-0.125,0.25-0.25,0.377-0.375
		c0.25-0.251,0.501-0.502,0.751-0.753c0.502-0.502,1.004-1.003,1.505-1.505c8.027-8.027,16.055-16.055,24.082-24.082
		c9.03-9.029,18.059-18.059,27.088-27.088c1.129-1.129,2.258-2.258,3.386-3.386c0.565-0.565,1.129-1.129,1.693-1.693
		c0.017-0.017,0.052-0.026,0.029-0.058c-0.007-0.009-0.013-0.019-0.02-0.028c-0.012-0.019-0.026-0.037-0.039-0.055
		c-0.026-0.037-0.052-0.074-0.078-0.111c-0.053-0.073-0.104-0.147-0.156-0.221c-0.417-0.594-0.824-1.196-1.221-1.805
		c-0.809-1.241-1.571-2.506-2.293-3.8c-3.087-5.538-5.247-11.224-6.617-17.414c-5.283-23.871,3.383-48.603,22.41-63.955
		c19.037-15.359,45.09-18.595,67.306-8.358c22.203,10.231,36.65,32.078,37.373,56.514c0.722,24.443-12.426,47.122-33.998,58.638
		C130.306,146.671,104.138,144.978,84.232,130.781z M151.901,46.718c-17.507-16.745-45.275-16.127-62.02,1.38
		c-16.744,17.507-16.127,45.275,1.38,62.02c17.507,16.745,45.275,16.126,62.02-1.38C170.026,91.23,169.408,63.463,151.901,46.718z"
		/>
</g>
</svg>
